<svg id="default_avatar" xmlns="http://www.w3.org/2000/svg" viewBox="0 0 80 80.5"><defs><style>.cls-1{fill:#ccc;}.cls-2{fill:#fff;}</style></defs><title>default_avatar</title><rect class="cls-1" width="80" height="80"/><path class="cls-2" d="M353.39,196.72v2.09a6.28,6.28,0,0,1-6.28,6.28H292.67a6.28,6.28,0,0,1-6.28-6.28v-2.09c0-9.25,7.5-23.75,16.75-23.75h7.21a22.78,22.78,0,0,0,19.08,0h7.21C345.89,173,353.39,187.47,353.39,196.72ZM301,149.94a18.84,18.84,0,1,1,18.84,18.84A18.85,18.85,0,0,1,301,149.94Z" transform="translate(-279.89 -124.59)"/></svg>