<?xml version="1.0" encoding="UTF-8"?>
<svg width="154px" height="35px" viewBox="0 0 154 35" version="1.1" xmlns="http://www.w3.org/2000/svg" xmlns:xlink="http://www.w3.org/1999/xlink">
    <!-- Generator: Sketch 55.1 (78136) - https://sketchapp.com -->
    <title>UIFramework-w@1x</title>
    <desc>Created with Sketch.</desc>
    <g id="qloud" stroke="none" stroke-width="1" fill="none" fill-rule="evenodd">
        <g id="logo" transform="translate(-830.000000, -419.000000)" fill="#FFFFFF">
            <g id="UIFramework-w" transform="translate(830.000000, 419.000000)">
                <path d="M26.203125,21.2691219 L30.1757812,21.2691219 L30.1757812,28.9507625 C30.1757812,29.7124851 30.0571301,30.4317161 29.8198242,31.1084773 C29.5825183,31.7852385 29.2104518,32.3770295 28.7036133,32.883868 C28.1967748,33.3907064 27.6650418,33.7466599 27.1083984,33.9517391 C26.3349571,34.2388499 25.4062554,34.3824031 24.3222656,34.3824031 C23.6953094,34.3824031 23.0112342,34.3384583 22.2700195,34.2505672 C21.5288049,34.1626761 20.9091822,33.9883615 20.4111328,33.727618 C19.9130834,33.4668745 19.4575216,33.0962727 19.0444336,32.6158016 C18.6313456,32.1353304 18.3486336,31.6402182 18.1962891,31.13045 C17.9501941,30.3101334 17.8271484,29.5835782 17.8271484,28.9507625 L17.8271484,21.2691219 L21.7998047,21.2691219 L21.7998047,29.1353328 C21.7998047,29.8384613 21.994627,30.3877722 22.3842773,30.783282 C22.7739277,31.1787918 23.3144497,31.3765437 24.0058594,31.3765437 C24.6914097,31.3765437 25.229002,31.1817215 25.6186523,30.7920711 C26.0083027,30.4024207 26.203125,29.8501801 26.203125,29.1353328 L26.203125,21.2691219 Z M33.4171031,21.2691219 L37.4073375,21.2691219 L37.4073375,34.1538875 L33.4171031,34.1538875 L33.4171031,21.2691219 Z M40.7277609,21.2691219 L50.5715109,21.2691219 L50.5715109,24.0376766 L44.7267844,24.0376766 L44.7267844,26.2876766 L49.7189719,26.2876766 L49.7189719,28.8892391 L44.7267844,28.8892391 L44.7267844,34.1538875 L40.7277609,34.1538875 L40.7277609,21.2691219 Z M52.3450594,24.8199031 L55.6936922,24.8199031 L55.6936922,26.3492 C56.0159594,25.6870873 56.3484756,25.2315255 56.6912508,24.9825008 C57.0340259,24.7334761 57.4573615,24.6089656 57.9612703,24.6089656 C58.4886167,24.6089656 59.0657594,24.7730265 59.6927156,25.1011531 L58.5852938,27.6499812 C58.1634166,27.4741991 57.8294356,27.3863094 57.5833406,27.3863094 C57.1145883,27.3863094 56.7513107,27.5796668 56.4934969,27.9663875 C56.1243544,28.5113121 55.9397859,29.5308332 55.9397859,31.0249812 L55.9397859,34.1538875 L52.3450594,34.1538875 L52.3450594,24.8199031 Z M64.3139203,27.8433406 L60.894975,27.4829891 C61.0238819,26.8853298 61.2099152,26.4151197 61.4530805,26.0723445 C61.6962457,25.7295694 62.0463399,25.4322091 62.5033734,25.1802547 C62.8315001,24.9986132 63.2826674,24.8579896 63.8568891,24.7583797 C64.4311107,24.6587698 65.0521982,24.6089656 65.7201703,24.6089656 C66.7924413,24.6089656 67.6537608,24.6690236 68.3041547,24.7891414 C68.9545486,24.9092592 69.4965353,25.159745 69.9301313,25.5406062 C70.2348203,25.8042794 70.4750522,26.1778109 70.6508344,26.6612117 C70.8266165,27.1446126 70.9145063,27.6060337 70.9145063,28.0454891 L70.9145063,32.1675594 C70.9145063,32.6070147 70.942338,32.9512495 70.9980023,33.2002742 C71.0536667,33.4492989 71.1752475,33.7671668 71.3627484,34.1538875 L68.0053266,34.1538875 C67.8705603,33.9136519 67.7826705,33.7305483 67.7416547,33.6045711 C67.7006389,33.4785939 67.6596236,33.280842 67.6186078,33.0113094 C67.1498555,33.4624835 66.6840398,33.7847459 66.2211469,33.9781062 C65.5883312,34.23592 64.852987,34.364825 64.0150922,34.364825 C62.9018054,34.364825 62.056599,34.1070151 61.4794477,33.5913875 C60.9022963,33.0757599 60.613725,32.4400241 60.613725,31.6841609 C60.613725,30.975173 60.8217307,30.392171 61.2377484,29.9351375 C61.6537661,29.478104 62.4213366,29.1382636 63.5404828,28.9156062 C64.8822864,28.6460737 65.7523949,28.4571107 66.1508344,28.3487117 C66.5492739,28.2403127 66.9711446,28.0982243 67.4164594,27.9224422 C67.4164594,27.4829869 67.32564,27.1753728 67.1439984,26.9995906 C66.9623569,26.8238085 66.6430242,26.7359187 66.1859906,26.7359187 C65.6000502,26.7359187 65.1606015,26.8296678 64.8676313,27.0171687 C64.6391145,27.1636539 64.454546,27.4390417 64.3139203,27.8433406 Z M67.4164594,29.7242 C66.9242694,29.8999821 66.4115792,30.055254 65.8783734,30.1900203 C65.1518073,30.3833807 64.691851,30.5738084 64.4984906,30.7613094 C64.2992709,30.9546697 64.1996625,31.1743941 64.1996625,31.4204891 C64.1996625,31.7017405 64.297806,31.9317186 64.4940961,32.1104305 C64.6903861,32.2891423 64.9789575,32.3784969 65.3598188,32.3784969 C65.7582582,32.3784969 66.12886,32.2818182 66.4716352,32.0884578 C66.8144103,31.8950975 67.0575719,31.65926 67.2011273,31.3809383 C67.3446827,31.1026166 67.4164594,30.7408038 67.4164594,30.2954891 L67.4164594,29.7242 Z M73.5318047,24.8199031 L76.8716484,24.8199031 L76.8716484,26.1822078 C77.3521196,25.6138456 77.836978,25.2095528 78.3262383,24.9693172 C78.8154985,24.7290816 79.4058247,24.6089656 80.0972344,24.6089656 C80.8413787,24.6089656 81.43024,24.7408002 81.8638359,25.0044734 C82.2974319,25.2681466 82.6519205,25.6607208 82.9273125,26.1822078 C83.4898153,25.5728298 84.0025055,25.1582831 84.4653984,24.9385555 C84.9282914,24.7188278 85.4995747,24.6089656 86.1792656,24.6089656 C87.1812238,24.6089656 87.9634425,24.9063259 88.5259453,25.5010555 C89.0884481,26.095785 89.3696953,27.0259515 89.3696953,28.2915828 L89.3696953,34.1538875 L85.7837578,34.1538875 L85.7837578,28.8365047 C85.7837578,28.4146276 85.7017274,28.1011542 85.5376641,27.896075 C85.2974285,27.5738078 84.9986033,27.4126766 84.6411797,27.4126766 C84.2193026,27.4126766 83.8794622,27.5650188 83.6216484,27.8697078 C83.3638346,28.1743968 83.2349297,28.6636498 83.2349297,29.3374812 L83.2349297,34.1538875 L79.6489922,34.1538875 L79.6489922,29.0122859 C79.6489922,28.6021276 79.6255549,28.3238101 79.5786797,28.177325 C79.5025074,27.9429488 79.3706728,27.7539859 79.1831719,27.6104305 C78.9956709,27.4668751 78.7759466,27.3950984 78.5239922,27.3950984 C78.1138339,27.3950984 77.7769232,27.5503703 77.51325,27.8609187 C77.2495768,28.1714672 77.1177422,28.6812277 77.1177422,29.3902156 L77.1177422,34.1538875 L73.5318047,34.1538875 L73.5318047,24.8199031 Z M102.314142,30.3745906 L95.1422672,30.3745906 C95.2067206,30.9488122 95.3619925,31.3765423 95.6080875,31.6577937 C95.9537924,32.0620926 96.4049597,32.2642391 96.9616031,32.2642391 C97.3131674,32.2642391 97.6471484,32.1763493 97.9635562,32.0005672 C98.1569166,31.8892385 98.3649223,31.6929514 98.5875797,31.4117 L102.111994,31.7368953 C101.572929,32.6744 100.922544,33.3467566 100.160822,33.7539852 C99.3990993,34.1612138 98.3063368,34.364825 96.8825016,34.364825 C95.6461673,34.364825 94.6735207,34.1905103 93.9645328,33.8418758 C93.2555449,33.4932412 92.6681484,32.9395358 92.2023258,32.180743 C91.7365031,31.4219501 91.5035953,30.5298692 91.5035953,29.5044734 C91.5035953,28.0454818 91.9708758,26.8648295 92.9054508,25.9624812 C93.8400258,25.060133 95.1305402,24.6089656 96.7770328,24.6089656 C98.112977,24.6089656 99.1676539,24.811112 99.9410953,25.2154109 C100.714537,25.6197098 101.303398,26.2056415 101.707697,26.9732234 C102.111996,27.7408054 102.314142,28.7398188 102.314142,29.9702937 L102.314142,30.3745906 Z M98.6754703,28.6607234 C98.6051575,27.9693137 98.4191242,27.4742015 98.1173648,27.1753719 C97.8156055,26.8765423 97.4186368,26.7271297 96.9264469,26.7271297 C96.3580847,26.7271297 95.9039876,26.9527134 95.5641422,27.4038875 C95.3473442,27.6851389 95.2096503,28.10408 95.1510562,28.6607234 L98.6754703,28.6607234 Z M103.349409,24.8199031 L106.8123,24.8199031 L108.31523,30.6997859 L110.213667,24.8199031 L113.439253,24.8199031 L115.408003,30.6997859 L116.910933,24.8199031 L120.347456,24.8199031 L116.910933,34.1538875 L113.729292,34.1538875 L111.839644,28.5376766 L110.011519,34.1538875 L106.8123,34.1538875 L103.349409,24.8199031 Z M121.092684,29.5132625 C121.092684,28.0894273 121.573148,26.9160991 122.534091,25.993243 C123.495033,25.0703868 124.792872,24.6089656 126.427645,24.6089656 C128.296795,24.6089656 129.708891,25.1509524 130.663973,26.2349422 C131.431555,27.1079934 131.815341,28.183178 131.815341,29.4605281 C131.815341,30.8960822 131.339271,32.0723399 130.387118,32.9893367 C129.434965,33.9063335 128.118083,34.364825 126.436434,34.364825 C124.936427,34.364825 123.723548,33.9839694 122.797762,33.2222469 C121.661038,32.2788828 121.092684,31.042567 121.092684,29.5132625 Z M124.678622,29.5044734 C124.678622,30.3365088 124.847077,30.9517371 125.183993,31.3501766 C125.520909,31.7486161 125.944244,31.9478328 126.454012,31.9478328 C126.96964,31.9478328 127.392976,31.7515457 127.724032,31.3589656 C128.055088,30.9663855 128.220614,30.336509 128.220614,29.4693172 C128.220614,28.6607194 128.053624,28.0586746 127.719637,27.6631648 C127.385651,27.2676551 126.97257,27.0699031 126.48038,27.0699031 C125.958893,27.0699031 125.528233,27.2705847 125.188387,27.6719539 C124.848542,28.0733231 124.678622,28.6841568 124.678622,29.5044734 Z M134.019553,24.8199031 L137.368186,24.8199031 L137.368186,26.3492 C137.690453,25.6870873 138.022969,25.2315255 138.365745,24.9825008 C138.70852,24.7334761 139.131855,24.6089656 139.635764,24.6089656 C140.16311,24.6089656 140.740253,24.7730265 141.367209,25.1011531 L140.259787,27.6499812 C139.83791,27.4741991 139.503929,27.3863094 139.257834,27.3863094 C138.789082,27.3863094 138.425804,27.5796668 138.167991,27.9663875 C137.798848,28.5113121 137.61428,29.5308332 137.61428,31.0249812 L137.61428,34.1538875 L134.019553,34.1538875 L134.019553,24.8199031 Z M143.017711,21.2691219 L146.673961,21.2691219 L146.673961,27.9136531 L149.345836,24.8199031 L153.749156,24.8199031 L150.400523,28.0894344 L153.942516,34.1538875 L149.908336,34.1538875 L148.018687,30.4097469 L146.673961,31.7281062 L146.673961,34.1538875 L143.017711,34.1538875 L143.017711,21.2691219 Z" id="UIFramework" fill-rule="nonzero"></path>
                <path d="M13.5,30.5367 C6.292,28.3457 2.227,20.7257 4.418,13.5177 C6.61,6.3107 14.229,2.2447 21.437,4.4367 C27.736,6.3527 31.768,12.4947 31.02,19.0367 L34.92,19.0367 C34.92,18.5367 35.0000422,18.0367 35.0000422,17.5367 C35.021,7.8717 27.202,0.0197 17.537,-0.000338282638 C7.872,-0.0203 0.021,7.7987 -3.8634016e-05,17.4637 C-0.017,25.6007 5.578,32.6767 13.5,34.5367 L13.5,30.5367 Z" id="Fill"></path>
            </g>
        </g>
    </g>
</svg>